<?xml version="1.0" encoding="UTF-8"?> <svg xmlns="http://www.w3.org/2000/svg" viewBox="0 0 167.55 145.15"><defs><style>.cls-1{fill:#377dff;}.cls-2{fill:#ea4335;}.cls-3{fill:#34a853;}</style></defs><title>Asset 2</title><g id="Layer_2" data-name="Layer 2"><g id="Layer_1-2" data-name="Layer 1"><path class="cls-1" d="M31.61,145.11c-8.41,0-16.81,0-25.22,0-6.76,0-7.8-1.36-4.79-7.6,3.25-6.75,7.07-13.24,10.83-19.73C21.22,102.61,30,87.47,39,72.41c8.23-13.82,23.57-17.25,35.12-8.06,5.7,4.53,6.11,6.83,2.41,13.12C71.1,86.72,65.77,96,60.24,105.23c-7.44,12.35-7.67,24.27,1.68,35.78.66.82,1.77,1.65,1.34,2.74-.65,1.65-2.38,1.33-3.75,1.33C50.2,145.12,40.9,145.1,31.61,145.11Z"></path><path class="cls-2" d="M120,145.06c-11.43,0-22.87.23-34.29-.06-14.93-.37-24.85-9.57-24.85-22.54,0-9.46,2.52-11.89,11.81-12.05,12.49-.22,25,.81,37.46-.65,11.75-1.38,19.59-7.88,24.26-18.55.47-1.07.24-2.81,1.88-2.91s1.86,1.49,2.45,2.51c9.3,15.87,18.53,31.78,27.87,47.62,1.78,3,1.15,4.77-2.22,5.27A94,94,0,0,1,152.15,145c-10.71.18-21.43.06-32.15.06Z"></path><path class="cls-3" d="M129.87,82c-.11,10.35-7.32,19-17.58,21.52-4.05,1-6.59.25-8.75-3.64-5.7-10.3-11.84-20.36-17.76-30.54-7-12.09-17.39-17.38-31.34-15.43-1,.14-2.43.31-3-.23-1.19-1.07,0-2.3.61-3.3,9.22-15.9,18.52-31.76,27.69-47.68,2.09-3.63,4.06-3.37,6.46-.47,4.8,5.82,8.19,12.53,12,19q14.15,24.28,28.33,48.55A22.82,22.82,0,0,1,129.87,82Z"></path></g></g></svg> 